<?xml version="1.0" encoding="UTF-8" standalone="no"?>
<!-- Created with Inkscape (http://www.inkscape.org/) -->
<svg xmlns:dc="http://purl.org/dc/elements/1.1/" xmlns:cc="http://creativecommons.org/ns#" xmlns:rdf="http://www.w3.org/1999/02/22-rdf-syntax-ns#" xmlns:svg="http://www.w3.org/2000/svg" xmlns="http://www.w3.org/2000/svg" xmlns:sodipodi="http://sodipodi.sourceforge.net/DTD/sodipodi-0.dtd" xmlns:inkscape="http://www.inkscape.org/namespaces/inkscape" width="87.923134" height="74.768555" id="svg35480" version="1.1" inkscape:version="0.48.5 r10040" sodipodi:docname="New document 72">
  <defs id="defs35482"/>
  <sodipodi:namedview id="base" pagecolor="#ffffff" bordercolor="#666666" borderopacity="1.0" inkscape:pageopacity="0.0" inkscape:pageshadow="2" inkscape:zoom="0.35" inkscape:cx="43.955214" inkscape:cy="37.375119" inkscape:document-units="px" inkscape:current-layer="layer1" showgrid="false" fit-margin-top="0" fit-margin-left="0" fit-margin-right="0" fit-margin-bottom="0" inkscape:window-width="1366" inkscape:window-height="766" inkscape:window-x="0" inkscape:window-y="0" inkscape:window-maximized="0"/>
  <metadata id="metadata35485">
    <rdf:RDF>
      <cc:Work rdf:about="">
        <dc:format>image/svg+xml</dc:format>
        <dc:type rdf:resource="http://purl.org/dc/dcmitype/StillImage"/>
        <dc:title/>
      </cc:Work>
    </rdf:RDF>
  </metadata>
  <g inkscape:label="Layer 1" inkscape:groupmode="layer" id="layer1" transform="translate(-331.04479,-494.96875)">
    <path inkscape:connector-curvature="0" id="path2382" d="m 331.65968,496.17348 c 1.56899,-0.3957 3.14725,-0.77143 4.73482,-1.12717 4.75996,5.96178 10.18088,11.32038 15.35208,16.91715 1.12352,-1.24298 2.26253,-2.47046 3.43767,-3.65816 1.89861,-0.069 3.80785,-0.0879 5.72293,-0.0849 2.58835,-3.87239 7.38919,-5.20332 11.75278,-3.87874 2.12179,-3.24463 6.02216,-4.60527 9.77112,-3.7742 6.24472,4.07981 9.02418,11.48097 11.52025,18.18402 4.14183,-4.28795 7.27383,-9.58581 12.09194,-13.18306 3.49034,-2.63614 8.08521,-2.52206 12.10028,-1.31944 0.0674,1.53176 1.43343,3.32156 0.35086,4.7377 -2.26279,1.54311 -5.30535,2.38206 -6.41746,5.15546 -2.97984,6.57002 -6.81174,12.75114 -8.99259,19.66958 -3.56044,6.23245 -8.28561,11.78324 -13.31413,16.89589 -3.84128,3.06661 0.88759,8.95431 -2.79156,12.07118 -3.73419,3.60025 -8.10259,7.37727 -13.67732,6.84965 0.0942,-1.45325 0.28286,-4.35973 0.37716,-5.81298 -0.9434,1.79665 -1.14726,3.71202 -0.61154,5.74615 -4.85455,-0.43655 -9.64964,-1.53893 -13.94632,-3.88703 -1.03307,-3.95291 -0.75402,-8.40301 -3.16763,-11.85419 -6.59786,-9.66672 -7.52556,-21.70006 -11.35521,-32.48745 -4.95911,-7.87125 -16.14968,-14.40261 -12.93813,-25.15948 z" style="fill:none;stroke:#171717;stroke-width:0.125;stroke-linecap:butt;stroke-linejoin:miter;stroke-miterlimit:10"/>
    <path inkscape:connector-curvature="0" id="path2384" d="m 331.65968,496.17348 c 1.56899,-0.3957 3.14725,-0.77143 4.73482,-1.12717 4.75996,5.96178 10.18088,11.32038 15.35208,16.91715 1.12352,-1.24298 2.26253,-2.47046 3.43767,-3.65816 1.89861,-0.069 3.80785,-0.0879 5.72293,-0.0849 2.58835,-3.87239 7.38919,-5.20332 11.75278,-3.87874 2.12179,-3.24463 6.02216,-4.60527 9.77112,-3.7742 6.24472,4.07981 9.02418,11.48097 11.52025,18.18402 4.14183,-4.28795 7.27383,-9.58581 12.09194,-13.18306 3.49034,-2.63614 8.08521,-2.52206 12.10028,-1.31944 0.0674,1.53176 1.43343,3.32156 0.35086,4.7377 -2.26279,1.54311 -5.30535,2.38206 -6.41746,5.15546 -2.97984,6.57002 -6.81174,12.75114 -8.99259,19.66958 -3.56044,6.23245 -8.28561,11.78324 -13.31413,16.89589 -3.84128,3.06661 0.88759,8.95431 -2.79156,12.07118 -3.73419,3.60025 -8.10259,7.37727 -13.67732,6.84965 0.0942,-1.45325 0.28286,-4.35973 0.37716,-5.81298 -0.9434,1.79665 -1.14726,3.71202 -0.61154,5.74615 -4.85455,-0.43655 -9.64964,-1.53893 -13.94632,-3.88703 -1.03307,-3.95291 -0.75402,-8.40301 -3.16763,-11.85419 -6.59786,-9.66672 -7.52556,-21.70006 -11.35521,-32.48745 -4.95911,-7.87125 -16.14968,-14.40261 -12.93813,-25.15948 z" style="fill:#171717;fill-rule:nonzero;stroke:none"/>
    <path inkscape:connector-curvature="0" id="path2390" d="m 332.85892,497.30991 c 5.31829,-1.47427 7.47695,4.73172 9.10248,8.57237 -1.46008,1.0422 -2.90892,2.10023 -4.36364,3.1513 -3.4185,-2.90817 -5.95306,-7.09764 -4.73884,-11.72367 z" style="fill:none;stroke:#ffffff;stroke-width:0.125;stroke-linecap:butt;stroke-linejoin:miter;stroke-miterlimit:10"/>
    <path inkscape:connector-curvature="0" id="path2392" d="m 332.85892,497.30991 c 5.31829,-1.47427 7.47695,4.73172 9.10248,8.57237 -1.46008,1.0422 -2.90892,2.10023 -4.36364,3.1513 -3.4185,-2.90817 -5.95306,-7.09764 -4.73884,-11.72367 z" style="fill:#ffffff;fill-rule:nonzero;stroke:none"/>
    <path inkscape:connector-curvature="0" id="path2414" d="m 374.7954,503.40719 c 3.62125,-2.31148 8.62423,-1.4773 10.513,2.59659 -0.44288,7.00031 -0.18235,14.09546 -1.65245,20.99973 -2.165,-2.9719 -7.07053,-1.36436 -8.1342,-5.20753 1.96465,-0.94044 3.95391,-1.83765 5.90312,-2.81787 -2.10567,0.0282 -4.20494,0.0899 -6.29484,0.10875 -0.0521,-5.23416 -0.63643,-10.45321 -0.33463,-15.67968 z" style="fill:none;stroke:#ffffff;stroke-width:0.125;stroke-linecap:butt;stroke-linejoin:miter;stroke-miterlimit:10"/>
    <path inkscape:connector-curvature="0" id="path2416" d="m 374.7954,503.40719 c 3.62125,-2.31148 8.62423,-1.4773 10.513,2.59659 -0.44288,7.00031 -0.18235,14.09546 -1.65245,20.99973 -2.165,-2.9719 -7.07053,-1.36436 -8.1342,-5.20753 1.96465,-0.94044 3.95391,-1.83765 5.90312,-2.81787 -2.10567,0.0282 -4.20494,0.0899 -6.29484,0.10875 -0.0521,-5.23416 -0.63643,-10.45321 -0.33463,-15.67968 z" style="fill:#ffffff;fill-rule:nonzero;stroke:none"/>
    <path inkscape:connector-curvature="0" id="path2446" d="m 338.66988,509.89541 c 1.52769,-1.46241 3.06175,-2.92305 4.76799,-4.17512 0.39595,0.65899 1.18783,1.97699 1.58378,2.63597 -1.4065,1.86202 -2.93479,3.63329 -4.60578,5.26952 -0.59479,-1.25123 -1.17677,-2.49469 -1.74599,-3.73037 z" style="fill:none;stroke:#ffffff;stroke-width:0.125;stroke-linecap:butt;stroke-linejoin:miter;stroke-miterlimit:10"/>
    <path inkscape:connector-curvature="0" id="path2448" d="m 338.66988,509.89541 c 1.52769,-1.46241 3.06175,-2.92305 4.76799,-4.17512 0.39595,0.65899 1.18783,1.97699 1.58378,2.63597 -1.4065,1.86202 -2.93479,3.63329 -4.60578,5.26952 -0.59479,-1.25123 -1.17677,-2.49469 -1.74599,-3.73037 z" style="fill:#ffffff;fill-rule:nonzero;stroke:none"/>
    <path inkscape:connector-curvature="0" id="path2450" d="m 363.26041,508.79673 c 1.28821,-3.45535 6.10339,-4.06324 9.29309,-3.18852 0.14567,6.18609 0.11712,12.40207 1.38915,18.4983 -2.02902,0.74087 -4.30179,1.20309 -5.64102,3.0717 2.31235,-0.223 4.5861,-0.75555 6.85307,-1.28393 0.42182,1.0142 0.84955,2.03991 1.28316,3.07715 -2.11198,0.25107 -4.1846,0.68887 -6.21276,1.2953 -5.27602,-5.80917 -6.29259,-13.9849 -6.96469,-21.47 z" style="fill:none;stroke:#ffffff;stroke-width:0.125;stroke-linecap:butt;stroke-linejoin:miter;stroke-miterlimit:10"/>
    <path inkscape:connector-curvature="0" id="path2452" d="m 363.26041,508.79673 c 1.28821,-3.45535 6.10339,-4.06324 9.29309,-3.18852 0.14567,6.18609 0.11712,12.40207 1.38915,18.4983 -2.02902,0.74087 -4.30179,1.20309 -5.64102,3.0717 2.31235,-0.223 4.5861,-0.75555 6.85307,-1.28393 0.42182,1.0142 0.84955,2.03991 1.28316,3.07715 -2.11198,0.25107 -4.1846,0.68887 -6.21276,1.2953 -5.27602,-5.80917 -6.29259,-13.9849 -6.96469,-21.47 z" style="fill:#ffffff;fill-rule:nonzero;stroke:none"/>
    <path inkscape:connector-curvature="0" id="path2454" d="m 400.98916,513.44354 c 3.6783,-5.14361 9.35126,-9.38974 16.06016,-7.94065 -0.51442,1.77094 -2.06864,2.86695 -3.29917,4.12395 -3.36608,3.01376 -4.7867,7.48346 -7.75948,10.82521 -2.08376,4.74969 -3.32502,9.84379 -5.47989,14.55706 -3.5608,4.70278 -7.11302,9.54845 -11.62741,13.39765 -4.0061,3.39437 -9.59842,2.098 -14.37767,1.93164 -1.13289,-1.83086 -2.27869,-3.64815 -3.19265,-5.57897 -1.68047,-2.47287 0.17246,-5.30614 1.35273,-7.54298 3.2879,-3.17165 7.79325,-4.65624 11.55754,-7.13399 1.62949,-1.62877 3.2472,-3.31306 5.36621,-4.30813 0.4562,1.78095 0.89655,3.59157 1.41033,5.38421 0.4244,-2.57711 0.72111,-5.16539 1.20226,-7.71681 1.82361,2.78828 3.48825,5.78418 6.16404,7.89015 -1.56315,-2.96003 -3.10883,-5.92477 -4.343,-9.0273 1.49402,-2.14737 3.07434,-4.23075 4.79449,-6.19699 1.45723,1.11594 2.94872,2.18159 4.58921,3.07177 -0.65921,-1.9907 -1.56406,-3.85532 -2.4177,-5.73582 z" style="fill:none;stroke:#ffffff;stroke-width:0.125;stroke-linecap:butt;stroke-linejoin:miter;stroke-miterlimit:10"/>
    <path inkscape:connector-curvature="0" id="path2456" d="m 400.98916,513.44354 c 3.6783,-5.14361 9.35126,-9.38974 16.06016,-7.94065 -0.51442,1.77094 -2.06864,2.86695 -3.29917,4.12395 -3.36608,3.01376 -4.7867,7.48346 -7.75948,10.82521 -2.08376,4.74969 -3.32502,9.84379 -5.47989,14.55706 -3.5608,4.70278 -7.11302,9.54845 -11.62741,13.39765 -4.0061,3.39437 -9.59842,2.098 -14.37767,1.93164 -1.13289,-1.83086 -2.27869,-3.64815 -3.19265,-5.57897 -1.68047,-2.47287 0.17246,-5.30614 1.35273,-7.54298 3.2879,-3.17165 7.79325,-4.65624 11.55754,-7.13399 1.62949,-1.62877 3.2472,-3.31306 5.36621,-4.30813 0.4562,1.78095 0.89655,3.59157 1.41033,5.38421 0.4244,-2.57711 0.72111,-5.16539 1.20226,-7.71681 1.82361,2.78828 3.48825,5.78418 6.16404,7.89015 -1.56315,-2.96003 -3.10883,-5.92477 -4.343,-9.0273 1.49402,-2.14737 3.07434,-4.23075 4.79449,-6.19699 1.45723,1.11594 2.94872,2.18159 4.58921,3.07177 -0.65921,-1.9907 -1.56406,-3.85532 -2.4177,-5.73582 z" style="fill:#ffffff;fill-rule:nonzero;stroke:none"/>
    <path inkscape:connector-curvature="0" id="path2470" d="m 386.48743,508.57014 c 4.14005,0.21102 -1.93343,3.72682 0,0 z" style="fill:none;stroke:#8f8f8f;stroke-width:0.125;stroke-linecap:butt;stroke-linejoin:miter;stroke-miterlimit:10"/>
    <path inkscape:connector-curvature="0" id="path2472" d="m 386.48743,508.57014 c 4.14005,0.21102 -1.93343,3.72682 0,0 z" style="fill:#8f8f8f;fill-rule:nonzero;stroke:none"/>
    <path inkscape:connector-curvature="0" id="path2482" d="m 342.26325,515.60535 c 1.24781,-2.20389 2.66887,-4.29764 4.09147,-6.38257 1.39424,1.7391 2.74325,3.52771 4.07675,5.33662 -1.3765,1.51945 -2.7529,3.04121 -4.13664,4.56124 -1.35097,-1.18249 -2.69147,-2.35934 -4.03158,-3.51529 z" style="fill:none;stroke:#ffffff;stroke-width:0.125;stroke-linecap:butt;stroke-linejoin:miter;stroke-miterlimit:10"/>
    <path inkscape:connector-curvature="0" id="path2484" d="m 342.26325,515.60535 c 1.24781,-2.20389 2.66887,-4.29764 4.09147,-6.38257 1.39424,1.7391 2.74325,3.52771 4.07675,5.33662 -1.3765,1.51945 -2.7529,3.04121 -4.13664,4.56124 -1.35097,-1.18249 -2.69147,-2.35934 -4.03158,-3.51529 z" style="fill:#ffffff;fill-rule:nonzero;stroke:none"/>
    <path inkscape:connector-curvature="0" id="path2486" d="m 353.53801,514.68305 c -0.73721,-4.3491 4.02486,-5.58572 7.36895,-4.78286 1.62719,5.62464 2.76899,11.383 4.56971,16.96779 -1.93359,0.93908 -3.88057,1.84837 -5.76507,2.87817 2.50727,0.1995 4.92702,-0.5113 7.30356,-1.23486 -0.9213,1.54482 -1.844,3.0967 -2.7131,4.68527 -7.95519,-2.2733 -8.80338,-11.78808 -10.76405,-18.51351 z" style="fill:none;stroke:#ffffff;stroke-width:0.125;stroke-linecap:butt;stroke-linejoin:miter;stroke-miterlimit:10"/>
    <path inkscape:connector-curvature="0" id="path2488" d="m 353.53801,514.68305 c -0.73721,-4.3491 4.02486,-5.58572 7.36895,-4.78286 1.62719,5.62464 2.76899,11.383 4.56971,16.96779 -1.93359,0.93908 -3.88057,1.84837 -5.76507,2.87817 2.50727,0.1995 4.92702,-0.5113 7.30356,-1.23486 -0.9213,1.54482 -1.844,3.0967 -2.7131,4.68527 -7.95519,-2.2733 -8.80338,-11.78808 -10.76405,-18.51351 z" style="fill:#ffffff;fill-rule:nonzero;stroke:none"/>
    <path inkscape:connector-curvature="0" id="path2526" d="m 389.30431,513.73673 c 2.32616,0.97363 -0.81943,4.82282 -2.62835,4.20018 -0.53463,-1.68203 1.05577,-3.69373 2.62835,-4.20018 z" style="fill:none;stroke:#c7c7c7;stroke-width:0.125;stroke-linecap:butt;stroke-linejoin:miter;stroke-miterlimit:10"/>
    <path inkscape:connector-curvature="0" id="path2528" d="m 389.30431,513.73673 c 2.32616,0.97363 -0.81943,4.82282 -2.62835,4.20018 -0.53463,-1.68203 1.05577,-3.69373 2.62835,-4.20018 z" style="fill:#c7c7c7;fill-rule:nonzero;stroke:none"/>
    <path inkscape:connector-curvature="0" id="path2554" d="m 346.58698,520.66278 c 1.65079,-1.30678 3.37914,-2.51642 5.2337,-3.51764 0.37068,2.89561 1.01653,5.74989 1.85969,8.55496 -1.84505,-0.0964 -4.09927,1.37203 -5.63682,-0.0645 -0.54988,-1.65125 -1.0354,-3.30889 -1.45657,-4.97289 z" style="fill:none;stroke:#ffffff;stroke-width:0.125;stroke-linecap:butt;stroke-linejoin:miter;stroke-miterlimit:10"/>
    <path inkscape:connector-curvature="0" id="path2556" d="m 346.58698,520.66278 c 1.65079,-1.30678 3.37914,-2.51642 5.2337,-3.51764 0.37068,2.89561 1.01653,5.74989 1.85969,8.55496 -1.84505,-0.0964 -4.09927,1.37203 -5.63682,-0.0645 -0.54988,-1.65125 -1.0354,-3.30889 -1.45657,-4.97289 z" style="fill:#ffffff;fill-rule:nonzero;stroke:none"/>
    <path inkscape:connector-curvature="0" id="path2558" d="m 386.21938,522.12446 c 1.21303,-2.18205 3.18273,-3.71742 5.14215,-5.18238 0.13117,1.76306 0.22349,3.53911 0.27693,5.3281 -1.81654,0.034 -3.62289,-0.0146 -5.41908,-0.14572 z" style="fill:none;stroke:#ffffff;stroke-width:0.125;stroke-linecap:butt;stroke-linejoin:miter;stroke-miterlimit:10"/>
    <path inkscape:connector-curvature="0" id="path2560" d="m 386.21938,522.12446 c 1.21303,-2.18205 3.18273,-3.71742 5.14215,-5.18238 0.13117,1.76306 0.22349,3.53911 0.27693,5.3281 -1.81654,0.034 -3.62289,-0.0146 -5.41908,-0.14572 z" style="fill:#ffffff;fill-rule:nonzero;stroke:none"/>
    <path inkscape:connector-curvature="0" id="path2594" d="m 348.68781,528.31915 c 2.03495,-0.99627 4.74731,-1.90104 6.73709,-0.30494 2.31212,2.72698 4.53993,5.75398 8.00061,7.12475 2.49759,1.40814 5.3344,-0.14816 7.95517,-0.35701 -1.31231,3.11351 -2.81848,6.28288 -2.7212,9.75915 0.44557,2.46618 1.8171,4.65086 2.68729,6.99761 -3.96775,1.0405 -7.7727,4.39455 -12.04325,2.89549 -2.74737,-1.63442 -3.99925,-4.85191 -5.04957,-7.70754 -1.902,-6.1248 -3.83623,-12.23835 -5.56614,-18.40751 z" style="fill:none;stroke:#ffffff;stroke-width:0.125;stroke-linecap:butt;stroke-linejoin:miter;stroke-miterlimit:10"/>
    <path inkscape:connector-curvature="0" id="path2596" d="m 348.68781,528.31915 c 2.03495,-0.99627 4.74731,-1.90104 6.73709,-0.30494 2.31212,2.72698 4.53993,5.75398 8.00061,7.12475 2.49759,1.40814 5.3344,-0.14816 7.95517,-0.35701 -1.31231,3.11351 -2.81848,6.28288 -2.7212,9.75915 0.44557,2.46618 1.8171,4.65086 2.68729,6.99761 -3.96775,1.0405 -7.7727,4.39455 -12.04325,2.89549 -2.74737,-1.63442 -3.99925,-4.85191 -5.04957,-7.70754 -1.902,-6.1248 -3.83623,-12.23835 -5.56614,-18.40751 z" style="fill:#ffffff;fill-rule:nonzero;stroke:none"/>
    <path inkscape:connector-curvature="0" id="path2598" d="m 378.17832,527.54466 c 1.05648,-1.20975 4.01115,-1.2911 4.15836,0.73764 -0.27952,2.62504 -5.53323,1.91756 -4.15836,-0.73764 z" style="fill:none;stroke:#ffffff;stroke-width:0.125;stroke-linecap:butt;stroke-linejoin:miter;stroke-miterlimit:10"/>
    <path inkscape:connector-curvature="0" id="path2600" d="m 378.17832,527.54466 c 1.05648,-1.20975 4.01115,-1.2911 4.15836,0.73764 -0.27952,2.62504 -5.53323,1.91756 -4.15836,-0.73764 z" style="fill:#ffffff;fill-rule:nonzero;stroke:none"/>
    <path inkscape:connector-curvature="0" id="path2606" d="m 372.9416,531.46584 c 0.93125,-1.51414 4.58002,-0.62013 2.93955,1.31754 -0.94183,1.50447 -4.57008,0.59417 -2.93955,-1.31754 z" style="fill:none;stroke:#c7c7c7;stroke-width:0.125;stroke-linecap:butt;stroke-linejoin:miter;stroke-miterlimit:10"/>
    <path inkscape:connector-curvature="0" id="path2608" d="m 372.9416,531.46584 c 0.93125,-1.51414 4.58002,-0.62013 2.93955,1.31754 -0.94183,1.50447 -4.57008,0.59417 -2.93955,-1.31754 z" style="fill:#c7c7c7;fill-rule:nonzero;stroke:none"/>
    <path inkscape:connector-curvature="0" id="path2610" d="m 366.56526,532.25084 c 3.77869,-1.88661 0.0211,4.12822 0,0 z" style="fill:none;stroke:#ffffff;stroke-width:0.125;stroke-linecap:butt;stroke-linejoin:miter;stroke-miterlimit:10"/>
    <path inkscape:connector-curvature="0" id="path2612" d="m 366.56526,532.25084 c 3.77869,-1.88661 0.0211,4.12822 0,0 z" style="fill:#ffffff;fill-rule:nonzero;stroke:none"/>
    <path inkscape:connector-curvature="0" id="path2650" d="m 373.46395,553.24413 c 2.44581,1.22871 5.11917,1.8194 7.87031,1.68617 0.33629,2.16383 0.69899,4.33419 1.04747,6.51806 0.97467,3.80034 -3.86172,5.54434 -6.88397,5.66208 -1.43586,-4.49096 -1.73871,-9.204 -2.03381,-13.86631 z" style="fill:none;stroke:#ffffff;stroke-width:0.125;stroke-linecap:butt;stroke-linejoin:miter;stroke-miterlimit:10"/>
    <path inkscape:connector-curvature="0" id="path2652" d="m 373.46395,553.24413 c 2.44581,1.22871 5.11917,1.8194 7.87031,1.68617 0.33629,2.16383 0.69899,4.33419 1.04747,6.51806 0.97467,3.80034 -3.86172,5.54434 -6.88397,5.66208 -1.43586,-4.49096 -1.73871,-9.204 -2.03381,-13.86631 z" style="fill:#ffffff;fill-rule:nonzero;stroke:none"/>
    <path inkscape:connector-curvature="0" id="path2654" d="m 381.33426,554.9303 c 1.14107,-0.46335 2.29025,-0.91442 3.44752,-1.35322 -0.4881,2.67151 0.93818,6.72153 -2.40005,7.87128 -0.34848,-2.18387 -0.71118,-4.35423 -1.04747,-6.51806 z" style="fill:none;stroke:#8f8f8f;stroke-width:0.125;stroke-linecap:butt;stroke-linejoin:miter;stroke-miterlimit:10"/>
    <path inkscape:connector-curvature="0" id="path2656" d="m 381.33426,554.9303 c 1.14107,-0.46335 2.29025,-0.91442 3.44752,-1.35322 -0.4881,2.67151 0.93818,6.72153 -2.40005,7.87128 -0.34848,-2.18387 -0.71118,-4.35423 -1.04747,-6.51806 z" style="fill:#8f8f8f;fill-rule:nonzero;stroke:none"/>
    <path inkscape:connector-curvature="0" id="path2666" d="m 359.87026,558.77635 c 2.93527,-0.8205 6.22321,-1.15392 8.57164,-3.29946 0.83992,3.77184 1.30338,7.61286 1.49507,11.48607 -2.91631,-0.7787 -5.81411,-1.55408 -8.70597,-2.36303 -0.47772,-1.94673 -0.93602,-3.8874 -1.36074,-5.82358 z" style="fill:none;stroke:#ffffff;stroke-width:0.125;stroke-linecap:butt;stroke-linejoin:miter;stroke-miterlimit:10"/>
    <path inkscape:connector-curvature="0" id="path2668" d="m 359.87026,558.77635 c 2.93527,-0.8205 6.22321,-1.15392 8.57164,-3.29946 0.83992,3.77184 1.30338,7.61286 1.49507,11.48607 -2.91631,-0.7787 -5.81411,-1.55408 -8.70597,-2.36303 -0.47772,-1.94673 -0.93602,-3.8874 -1.36074,-5.82358 z" style="fill:#ffffff;fill-rule:nonzero;stroke:none"/>
  </g>
</svg>